<?xml version="1.0" encoding="utf-8"?>
<!-- Generator: Adobe Illustrator 25.2.1, SVG Export Plug-In . SVG Version: 6.00 Build 0)  -->
<svg version="1.1" id="Layer_1" xmlns="http://www.w3.org/2000/svg" xmlns:xlink="http://www.w3.org/1999/xlink" x="0px" y="0px"
	 viewBox="0 0 960 1080" style="enable-background:new 0 0 960 1080;" xml:space="preserve">
<g>
	<path d="M141.91,1076.5H2.73V3.5h139.18V1076.5z M957.27,540.75c0,387.84-293.45,535.75-541.53,535.75H202.43V931.59H403.6
		c187.62,0,422.08-78.43,422.08-390.84c0-313.92-234.47-399.92-422.08-399.92H202.43V3.5h213.31
		C663.82,3.5,957.27,151.38,957.27,540.75z"/>
	<g>
		<path d="M443.17,204.16H309.64v85.96h125.93c117.44,0,264.22,53.84,264.22,250.35c0,195.57-146.77,244.66-264.22,244.66H309.64
			v90.71h133.53c155.29,0,338.99-92.59,338.99-335.37C782.17,296.73,598.47,204.16,443.17,204.16z"/>
		<rect x="202.43" y="204.16" width="87.13" height="671.69"/>
	</g>
</g>
</svg>
